<svg width="1200" height="520" viewBox="0 0 1200 520" fill="none" xmlns="http://www.w3.org/2000/svg">
  <defs>
    <linearGradient id="bamboo" x1="80" y1="40" x2="1120" y2="480" gradientUnits="userSpaceOnUse">
      <stop stop-color="#0A6947"/>
      <stop offset="1" stop-color="#A7FACE"/>
    </linearGradient>
    <filter id="blur" x="-40" y="-40" width="1280" height="600" filterUnits="userSpaceOnUse" color-interpolation-filters="sRGB">
      <feGaussianBlur stdDeviation="20"/>
    </filter>
  </defs>

  <rect x="0" y="0" width="1200" height="520" rx="36" fill="#F3F0EF"/>
  <circle cx="200" cy="140" r="140" fill="#A7FACE" fill-opacity="0.25" filter="url(#blur)"/>
  <circle cx="980" cy="420" r="160" fill="#C1ECD4" fill-opacity="0.25" filter="url(#blur)"/>

  <!-- card -->
  <rect x="110" y="92" width="980" height="336" rx="36" fill="#FFFFFF"/>
  <rect x="110" y="92" width="980" height="336" rx="36" stroke="#DFDCDC" stroke-width="2"/>

  <!-- left: prompt -->
  <rect x="170" y="150" width="520" height="54" rx="18" fill="#EAE7E7"/>
  <rect x="170" y="222" width="460" height="54" rx="18" fill="#EAE7E7"/>
  <rect x="170" y="294" width="400" height="54" rx="18" fill="#EAE7E7"/>

  <!-- right: AI nodes -->
  <circle cx="870" cy="190" r="46" fill="url(#bamboo)"/>
  <circle cx="790" cy="288" r="28" fill="#0A6947" fill-opacity="0.85"/>
  <circle cx="950" cy="292" r="28" fill="#0A6947" fill-opacity="0.85"/>
  <circle cx="870" cy="350" r="20" fill="#0A6947" fill-opacity="0.65"/>

  <path d="M827 210L808 268" stroke="#0A6947" stroke-width="8" stroke-linecap="round" opacity="0.4"/>
  <path d="M913 210L932 268" stroke="#0A6947" stroke-width="8" stroke-linecap="round" opacity="0.4"/>
  <path d="M870 236V322" stroke="#0A6947" stroke-width="8" stroke-linecap="round" opacity="0.35"/>

  <!-- sparkle -->
  <path d="M870 170l10 16 18 4-16 10 2 18-14-12-14 12 2-18-16-10 18-4 10-16z" fill="#C9FFDF" opacity="0.95"/>
</svg>

