<svg width="1200" height="520" viewBox="0 0 1200 520" fill="none" xmlns="http://www.w3.org/2000/svg">
  <defs>
    <linearGradient id="bamboo" x1="120" y1="80" x2="1080" y2="440" gradientUnits="userSpaceOnUse">
      <stop stop-color="#0A6947"/>
      <stop offset="1" stop-color="#A7FACE"/>
    </linearGradient>
    <filter id="soft" x="-40" y="-40" width="1280" height="600" filterUnits="userSpaceOnUse" color-interpolation-filters="sRGB">
      <feGaussianBlur stdDeviation="18"/>
    </filter>
  </defs>

  <rect x="0" y="0" width="1200" height="520" rx="36" fill="#F3F0EF"/>
  <circle cx="260" cy="410" r="170" fill="#A7FACE" fill-opacity="0.25" filter="url(#soft)"/>
  <circle cx="960" cy="140" r="140" fill="#C1ECD4" fill-opacity="0.22" filter="url(#soft)"/>

  <!-- curve -->
  <path d="M170 360C300 220 470 180 600 210C740 244 820 144 1020 150" stroke="url(#bamboo)" stroke-width="16" stroke-linecap="round"/>

  <!-- points -->
  <circle cx="170" cy="360" r="18" fill="#0A6947"/>
  <circle cx="370" cy="260" r="18" fill="#0A6947"/>
  <circle cx="600" cy="210" r="18" fill="#0A6947"/>
  <circle cx="820" cy="168" r="18" fill="#0A6947"/>
  <circle cx="1020" cy="150" r="18" fill="#0A6947"/>

  <!-- forecast fan -->
  <path d="M1020 150C1076 150 1120 194 1120 250" stroke="#0A6947" stroke-opacity="0.35" stroke-width="10" stroke-linecap="round"/>
  <path d="M1020 150C1102 150 1160 210 1160 292" stroke="#0A6947" stroke-opacity="0.25" stroke-width="10" stroke-linecap="round"/>
  <path d="M1020 150C1120 150 1190 230 1190 330" stroke="#0A6947" stroke-opacity="0.18" stroke-width="10" stroke-linecap="round"/>
</svg>

