<svg width="1200" height="520" viewBox="0 0 1200 520" fill="none" xmlns="http://www.w3.org/2000/svg">
  <defs>
    <linearGradient id="decisionGradient" x1="165" y1="110" x2="1035" y2="418" gradientUnits="userSpaceOnUse">
      <stop stop-color="#FD9D1A"/>
      <stop offset="1" stop-color="#0A6947"/>
    </linearGradient>
  </defs>
  <rect width="1200" height="520" rx="36" fill="#F3F0EF"/>

  <rect x="120" y="86" width="960" height="348" rx="30" fill="#FFFFFF"/>
  <rect x="120" y="86" width="960" height="348" rx="30" stroke="#DFDCDC" stroke-width="2"/>

  <rect x="178" y="146" width="290" height="228" rx="20" fill="#F9F6F5"/>
  <rect x="178" y="146" width="290" height="228" rx="20" stroke="#E5E2E1" stroke-width="2"/>
  <path d="M228 302L276 252L324 286L376 216L418 236" stroke="url(#decisionGradient)" stroke-width="8" stroke-linecap="round" stroke-linejoin="round"/>
  <circle cx="228" cy="302" r="9" fill="#0A6947"/>
  <circle cx="276" cy="252" r="9" fill="#0A6947"/>
  <circle cx="324" cy="286" r="9" fill="#0A6947"/>
  <circle cx="376" cy="216" r="9" fill="#0A6947"/>
  <circle cx="418" cy="236" r="9" fill="#0A6947"/>

  <rect x="514" y="146" width="506" height="228" rx="20" fill="#F9F6F5"/>
  <rect x="514" y="146" width="506" height="228" rx="20" stroke="#E5E2E1" stroke-width="2"/>
  <path d="M570 200H920" stroke="#E5E2E1" stroke-width="12" stroke-linecap="round"/>
  <path d="M570 252H860" stroke="#E5E2E1" stroke-width="12" stroke-linecap="round"/>
  <path d="M570 304H788" stroke="#E5E2E1" stroke-width="12" stroke-linecap="round"/>
  <rect x="932" y="182" width="52" height="52" rx="14" fill="#A7FACE"/>
  <path d="M946 208L956 218L972 198" stroke="#0A6947" stroke-width="6" stroke-linecap="round" stroke-linejoin="round"/>

  <circle cx="975" cy="337" r="30" fill="#FD9D1A" fill-opacity="0.22"/>
  <circle cx="975" cy="337" r="16" fill="#FD9D1A"/>
</svg>

