<svg width="1200" height="520" viewBox="0 0 1200 520" fill="none" xmlns="http://www.w3.org/2000/svg">
  <defs>
    <linearGradient id="g2" x1="180" y1="420" x2="1000" y2="120" gradientUnits="userSpaceOnUse">
      <stop stop-color="#0A6947"/>
      <stop offset="1" stop-color="#A7FACE"/>
    </linearGradient>
  </defs>
  <rect width="1200" height="520" rx="36" fill="#F3F0EF"/>
  <rect x="120" y="96" width="960" height="328" rx="28" fill="#FFFFFF"/>
  <rect x="120" y="96" width="960" height="328" rx="28" stroke="#DFDCDC" stroke-width="2"/>
  <path d="M188 356H1012" stroke="#E5E2E1" stroke-width="2"/>
  <path d="M188 292H1012" stroke="#E5E2E1" stroke-width="2"/>
  <path d="M188 228H1012" stroke="#E5E2E1" stroke-width="2"/>
  <rect x="238" y="268" width="96" height="88" rx="14" fill="#A7FACE"/>
  <rect x="382" y="228" width="96" height="128" rx="14" fill="#8FDFC1"/>
  <rect x="526" y="188" width="96" height="168" rx="14" fill="#67CDA6"/>
  <rect x="670" y="160" width="96" height="196" rx="14" fill="#3AAD83"/>
  <rect x="814" y="122" width="96" height="234" rx="14" fill="#0A6947"/>
  <path d="M238 250L430 202L574 170L718 146L862 114" stroke="url(#g2)" stroke-width="8" stroke-linecap="round"/>
  <circle cx="862" cy="114" r="10" fill="#0A6947"/>
</svg>

